:FULLY-SPECIFIED
:FORCE-ALL-JOINTS-BE-3DOF
:DEGREES
408
root 7.15659 13.7926 -34.2399 158.588 75.5556 152.195
lfemur 19.1537 -2.21958 -10.2654
ltibia 22.9467 -0 0
lfoot -23.8287 33.7155 0.00336423
ltoes -26.3484 0 0
rfemur -66.7259 -15.9627 8.5595
rtibia 79.5809 -0 0
rfoot -14.2992 12.7434 0.00611585
rtoes 9.32279 -0 0
lowerback 8.22341 5.03746 -11.5556
upperback -2.5338 5.4012 -1.37757
thorax -8.31397 3.18085 4.09593
lowerneck 0.413687 -11.6877 -10.9544
upperneck 3.4569 -15.886 9.27702
head 2.57264 -7.93255 3.94615
lclavicle -2.44257e-014 2.13694e-014 0
lhumerus -70.1364 -19.9605 106.271
lradius 100.274 -0 0
lwrist 50.6056 0 0
lhand -9.57956 42.5436 0.00673805
lfingers 7.12502 -0 0
lthumb 16.3886 71.8725 0.00679155
rclavicle -2.44257e-014 2.13694e-014 0
rhumerus 49.4928 -4.22127 -60.267
rradius 19.7869 -0 0
rwrist 19.8594 0 0
rhand -22.2346 -33.1072 0.0162207
rfingers 7.12502 -0 0
rthumb 4.18237 -63.0516 0.0148004
409
root 7.15662 13.7919 -34.2413 158.688 75.5361 152.256
lfemur 19.1943 -2.18353 -10.231
ltibia 22.84 -0 0
lfoot -23.9161 33.7863 0.0042674
ltoes -26.1944 0 0
rfemur -66.7616 -16.0194 8.59181
rtibia 79.6381 -0 0
rfoot -14.347 12.7659 0.00749849
rtoes 9.24302 -0 0
lowerback 8.18369 5.02191 -11.5565
upperback -2.55357 5.38463 -1.37002
thorax -8.31035 3.17367 4.10952
lowerneck 0.389599 -11.6666 -10.9645
upperneck 3.45024 -15.8544 9.26341
head 2.57085 -7.91675 3.94437
lclavicle -2.44257e-014 2.13694e-014 0
lhumerus -70.1726 -19.8475 106.265
lradius 100.26 -0 0
lwrist 50.546 0 0
lhand -9.54158 42.4588 0.00798313
lfingers 7.12502 -0 0
lthumb 16.4251 71.7848 0.00802932
rclavicle -2.44257e-014 2.13694e-014 0
rhumerus 49.5447 -4.2086 -60.2996
rradius 19.7326 -0 0
rwrist 20.0103 0 0
rhand -22.2337 -33.14 0.019023
rfingers 7.12502 -0 0
rthumb 4.18333 -63.0854 0.0173613
410
root 7.15665 13.7912 -34.2427 158.808 75.5138 152.337
lfemur 19.2148 -2.15382 -10.1939
ltibia 22.7631 -0 0
lfoot -24.0018 33.852 0.00520231
ltoes -26.0324 0 0
rfemur -66.7938 -16.073 8.62214
rtibia 79.6873 -0 0
rfoot -14.3892 12.7893 0.00882322
rtoes 9.14751 -0 0
lowerback 8.14775 5.00552 -11.5542
upperback -2.57237 5.36695 -1.36084
thorax -8.30751 3.16583 4.12307
lowerneck 0.36628 -11.6463 -10.9756
upperneck 3.4395 -15.8239 9.25158
head 2.56806 -7.90148 3.94336
lclavicle -2.44257e-014 2.13694e-014 0
lhumerus -70.2073 -19.7399 106.261
lradius 100.246 -0 0
lwrist 50.4887 0 0
lhand -9.50731 42.3781 0.00915793
lfingers 7.12502 -0 0
lthumb 16.4582 71.7015 0.00919493
rclavicle -2.44257e-014 2.13694e-014 0
rhumerus 49.5955 -4.19997 -60.3279
rradius 19.6816 -0 0
rwrist 20.1491 0 0
rhand -22.2275 -33.1809 0.0215428
rfingers 7.12502 -0 0
rthumb 4.18933 -63.127 0.0196631
411
root 7.15668 13.7905 -34.2441 158.951 75.489 152.443
lfemur 19.2098 -2.13206 -10.1539
ltibia 22.7262 -0 0
lfoot -24.0847 33.9102 0.00611889
ltoes -25.8631 0 0
rfemur -66.8209 -16.1217 8.65016
rtibia 79.7259 -0 0
rfoot -14.4241 12.8119 0.0100209
rtoes 9.03424 -0 0
lowerback 8.11713 4.98829 -11.5473
upperback -2.58955 5.34813 -1.34961
thorax -8.30558 3.15721 4.13622
lowerneck 0.344243 -11.6272 -10.9877
upperneck 3.42434 -15.7951 9.24213
head 2.5642 -7.88705 3.94329
lclavicle -2.44257e-014 2.13694e-014 0
lhumerus -70.2395 -19.6414 106.259
lradius 100.234 -0 0
lwrist 50.4359 0 0
lhand -9.47746 42.3037 0.0102008
lfingers 7.12502 -0 0
lthumb 16.4869 71.6249 0.0102273
rclavicle -2.44257e-014 2.13694e-014 0
rhumerus 49.6436 -4.19528 -60.3493
rradius 19.6366 -0 0
rwrist 20.2685 0 0
rhand -22.2143 -33.2299 0.0236513
rfingers 7.12502 -0 0
rthumb 4.20206 -63.1766 0.0215881
412
root 7.15671 13.7898 -34.2455 159.123 75.462 152.58
lfemur 19.1737 -2.11986 -10.1106
ltibia 22.7394 -0 0
lfoot -24.1637 33.9584 0.0069584
ltoes -25.687 0 0
rfemur -66.8414 -16.1636 8.67553
rtibia 79.7515 -0 0
rfoot -14.4502 12.8323 0.0110192
rtoes 8.9012 -0 0
lowerback 8.09335 4.9702 -11.5343
upperback -2.6045 5.32817 -1.3359
thorax -8.30465 3.14774 4.14862
lowerneck 0.324 -11.6098 -11.0005
upperneck 3.40439 -15.7685 9.23563
head 2.55919 -7.87378 3.94432
lclavicle -2.44257e-014 2.13694e-014 0
lhumerus -70.2679 -19.5558 106.259
lradius 100.222 -0 0
lwrist 50.3896 0 0
lhand -9.45277 42.238 0.0110472
lfingers 7.12502 -0 0
lthumb 16.5107 71.5573 0.0110625
rclavicle -2.44257e-014 2.13694e-014 0
rhumerus 49.6875 -4.19445 -60.3609
rradius 19.5998 -0 0
rwrist 20.3607 0 0
rhand -22.1924 -33.2875 0.0252256
rfingers 7.12502 -0 0
rthumb 4.22322 -63.2344 0.0230243
413
root 7.15674 13.7891 -34.2469 159.326 75.4332 152.753
lfemur 19.101 -2.11883 -10.0637
ltibia 22.813 -0 0
lfoot -24.2375 33.9941 0.00765502
ltoes -25.5047 0 0
rfemur -66.854 -16.197 8.69791
rtibia 79.7615 -0 0
rfoot -14.4657 12.849 0.0117442
rtoes 8.74638 -0 0
lowerback 8.07794 4.95123 -11.514
upperback -2.61659 5.30704 -1.31926
thorax -8.30484 3.13734 4.15993
lowerneck 0.306063 -11.5945 -11.0142
upperneck 3.3793 -15.745 9.23266
head 2.55296 -7.86199 3.94663
lclavicle -2.44257e-014 2.13694e-014 0
lhumerus -70.2916 -19.487 106.263
lradius 100.211 -0 0
lwrist 50.352 0 0
lhand -9.43396 42.1833 0.0116307
lfingers 7.12502 -0 0
lthumb 16.5288 71.5011 0.0116348
rclavicle -2.44257e-014 2.13694e-014 0
rhumerus 49.7254 -4.19736 -60.3601
rradius 19.5738 -0 0
rwrist 20.4181 0 0
rhand -22.16 -33.3539 0.0261501
rfingers 7.12502 -0 0
rthumb 4.2545 -63.3005 0.0238665
414
root 7.15677 13.7885 -34.2483 159.565 75.4028 152.967
lfemur 18.986 -2.13054 -10.013
ltibia 22.9574 -0 0
lfoot -24.3051 34.0148 0.00813797
ltoes -25.317 0 0
rfemur -66.8569 -16.2199 8.71695
rtibia 79.7534 -0 0
rfoot -14.469 12.8605 0.0121218
rtoes 8.56777 -0 0
lowerback 8.07241 4.93136 -11.485
upperback -2.62518 5.28472 -1.29928
thorax -8.30626 3.1259 4.1698
lowerneck 0.290944 -11.5816 -11.0286
upperneck 3.3487 -15.725 9.23381
head 2.54542 -7.852 3.95038
lclavicle -2.44257e-014 2.13694e-014 0
lhumerus -70.3094 -19.4387 106.27
lradius 100.201 -0 0
lwrist 50.3251 0 0
lhand -9.42176 42.1419 0.0118853
lfingers 7.12502 -0 0
lthumb 16.5405 71.4587 0.0118789
rclavicle -2.44257e-014 2.13694e-014 0
rhumerus 49.7557 -4.20395 -60.3442
rradius 19.561 -0 0
rwrist 20.4333 0 0
rhand -22.1154 -33.4294 0.0263181
rfingers 7.12502 -0 0
rthumb 4.29758 -63.3751 0.0240175
415
root 7.1568 13.7878 -34.2497 159.844 75.371 153.226
lfemur 18.8233 -2.15656 -9.95803
ltibia 23.1826 -0 0
lfoot -24.3652 34.018 0.00833416
ltoes -25.1244 0 0
rfemur -66.8488 -16.2306 8.73233
rtibia 79.7246 -0 0
rfoot -14.4585 12.8651 0.0120801
rtoes 8.36335 -0 0
lowerback 8.0783 4.91058 -11.4459
upperback -2.62967 5.2612 -1.27552
thorax -8.30902 3.11336 4.17788
lowerneck 0.279156 -11.5717 -11.0438
upperneck 3.31224 -15.7092 9.23967
head 2.53651 -7.84413 3.95573
lclavicle -2.44257e-014 2.13694e-014 0
lhumerus -70.3201 -19.4148 106.281
lradius 100.192 -0 0
lwrist 50.3112 0 0
lhand -9.41689 42.116 0.011747
lfingers 7.12502 -0 0
lthumb 16.5452 71.4323 0.0117316
rclavicle -2.44257e-014 2.13694e-014 0
rhumerus 49.7768 -4.21411 -60.3104
rradius 19.5639 -0 0
rwrist 20.3985 0 0
rhand -22.0568 -33.5141 0.0256333
rfingers 7.12502 -0 0
rthumb 4.35415 -63.4585 0.0233903
416
root 7.15684 13.7871 -34.251 160.166 75.338 153.535
lfemur 18.6074 -2.19844 -9.89847
ltibia 23.4989 -0 0
lfoot -24.4168 34.0013 0.00817132
ltoes -24.9275 0 0
rfemur -66.8282 -16.2272 8.7437
rtibia 79.6727 -0 0
rfoot -14.4324 12.8615 0.0115516
rtoes 8.1311 -0 0
lowerback 8.09713 4.88883 -11.3953
upperback -2.62941 5.23645 -1.24756
thorax -8.31324 3.09961 4.18382
lowerneck 0.271213 -11.5651 -11.0595
upperneck 3.26956 -15.6983 9.25082
head 2.52615 -7.83869 3.96285
lclavicle -2.44257e-014 2.13694e-014 0
lhumerus -70.3227 -19.419 106.297
lradius 100.183 -0 0
lwrist 50.3122 0 0
lhand -9.42009 42.108 0.0111563
lfingers 7.12502 -0 0
lthumb 16.5421 71.4245 0.0111341
rclavicle -2.44257e-014 2.13694e-014 0
rhumerus 49.787 -4.22775 -60.2562
rradius 19.5848 -0 0
rwrist 20.3063 0 0
rhand -21.9825 -33.6085 0.0240117
rfingers 7.12502 -0 0
rthumb 4.4259 -63.5508 0.0219086
417
root 7.15687 13.7864 -34.2524 160.537 75.304 153.901
lfemur 18.3326 -2.25768 -9.83382
ltibia 23.9166 -0 0
lfoot -24.4586 33.962 0.00758163
ltoes -24.7269 0 0
rfemur -66.7935 -16.208 8.75075
rtibia 79.5951 -0 0
rfoot -14.3893 12.848 0.0104768
rtoes 7.86901 -0 0
lowerback 8.1304 4.86609 -11.332
upperback -2.6238 5.21046 -1.21496
thorax -8.31901 3.08458 4.18728
lowerneck 0.267627 -11.5624 -11.0758
upperneck 3.22029 -15.6929 9.26785
head 2.51426 -7.836 3.97191
lclavicle -2.44257e-014 2.13694e-014 0
lhumerus -70.316 -19.4552 106.319
lradius 100.177 -0 0
lwrist 50.3303 0 0
lhand -9.43208 42.1201 0.0100607
lfingers 7.12502 -0 0
lthumb 16.5306 71.4374 0.0100347
rclavicle -2.44257e-014 2.13694e-014 0
rhumerus 49.7847 -4.24475 -60.1787
rradius 19.6262 -0 0
rwrist 20.149 0 0
rhand -21.8907 -33.7127 0.0213834
rfingers 7.12502 -0 0
rthumb 4.51453 -63.6522 0.0195091
418
root 7.1569 13.7857 -34.2538 160.96 75.2691 154.327
lfemur 17.9933 -2.33577 -9.76354
ltibia 24.4459 -0 0
lfoot -24.4895 33.8978 0.00650586
ltoes -24.5234 0 0
rfemur -66.7433 -16.171 8.75318
rtibia 79.4892 -0 0
rfoot -14.3272 12.8232 0.0088074
rtoes 7.57508 -0 0
lowerback 8.17965 4.84228 -11.2545
upperback -2.61219 5.1832 -1.1773
thorax -8.32646 3.06817 4.18791
lowerneck 0.268913 -11.5639 -11.0926
upperneck 3.16407 -15.6936 9.29135
head 2.50076 -7.83639 3.98308
lclavicle -2.44257e-014 2.13694e-014 0
lhumerus -70.2991 -19.5271 106.346
lradius 100.171 -0 0
lwrist 50.3677 0 0
lhand -9.45358 42.1548 0.0084179
lfingers 7.12502 -0 0
lthumb 16.5099 71.4735 0.00839166
rclavicle -2.44257e-014 2.13694e-014 0
rhumerus 49.7683 -4.26498 -60.0753
rradius 19.6906 -0 0
rwrist 19.919 0 0
rhand -21.7797 -33.827 0.0176941
rfingers 7.12502 -0 0
rthumb 4.62173 -63.7629 0.0161426
